<svg xmlns="http://www.w3.org/2000/svg" xmlns:xlink="http://www.w3.org/1999/xlink" width="442" height="197" viewBox="0 0 442 197">
    <defs>
        <path id="a" d="M59.462 133.042c-.723-1.809-1.265-4.024-1.627-6.646-.542-3.933-2.034-11.12-2.577-15.324-.542-4.205-.813-7.188-1.898-11.121-1.085-3.933 0-4.069-4.069-5.696-4.068-1.628-20.478-5.425-22.784-6.645-2.305-1.221-17.223-7.595-22.92-17.902C-2.107 59.4.198 48.55 2.232 43.398c2.035-5.154 6.375-15.054 17.766-24.547C31.39 9.358 53.902 2.848 65.565 2.034 77.228 1.221 79.805 0 87.671 0c7.866 0 18.715 1.085 24.14 2.034 5.425.95 20.479 4.476 30.243 11.392 9.765 6.917 15.46 11.663 19.53 16.274 4.068 4.611 8 10.172 9.9 14.647 1.898 4.476 3.932 11.257 4.61 18.851.678 7.595.136 13.426-1.763 19.665-1.898 6.238-6.916 16.952-14.918 23.19-8.001 6.24-15.867 9.9-24.14 12.206-8.273 2.306-23.326 1.628-28.615 1.628-5.29 0-10.443-.95-17.36-4.611-6.916-3.662-12.883-8.815-13.697-8.815-.814 0-.271 1.22-.542 3.661-.181 1.628-1.718 7.82-4.611 18.58l.135.271-2.17 5.425v.95a4.805 4.805 0 0 0-.813 1.355 5.733 5.733 0 0 0-.407 1.628c-.543 0-.95.18-1.22.542-.272-.27-.679-.813-1.9-.678-.924.103-1.602.51-2.034 1.22-.452-.36-.859-.903-1.22-1.627-.362-.723-.724-1.085-1.085-1.085.037-.353.037-.625 0-.813l-.407-.678c.358-.906.63-1.584.814-2.035.314-.77.813-1.898.949-2.305.135-.407.407-1.085.542-1.628.136-.542.58-1.872.814-2.576.144-.432.27-.82.385-1.182.21-.659.385-1.226.564-1.802.678-2.17.814-2.441.95-3.12.208-1.209.521-2.223.678-2.983.95-4.61 2.17-7.866 2.17-10.442 0-1.718-.136-3.979-.407-6.781-1.176-.09-1.763-.498-1.763-1.22 0-.724.18-1.628.542-2.713-.633-.362-.949-.904-.949-1.628 0-1.085.542-.813 0-1.763-.543-.95-.271-3.255.95-4.746.813-.995 1.627-1.628 2.44-1.899l3.662 2.848h.543a513.353 513.353 0 0 0 6.51 7.73c2.576 2.984 4.068 3.933 5.017 4.882.95.95 2.034 1.628 3.255 2.306 1.22.678 4.611 3.526 8.001 4.747 3.391 1.22 7.324 2.576 12.477 2.848 5.154.27 12.206 0 13.97 0 1.762 0 12.747-.678 18.172-3.662 5.425-2.984 12.477-5.696 17.902-11.663 5.424-5.967 8.137-12.206 9.086-15.868.95-3.661 2.441-10.307 1.899-15.053-.543-4.747-3.526-19.53-8.815-24.412-5.29-4.882-10.579-13.426-15.732-16.68-5.154-3.256-23.327-13.97-36.482-14.512-4.403-.181-9.154-1.492-14.646-1.492-10.914.001-13.291.678-21.157 1.492s-23.462 3.255-33.498 7.73C28.135 22.106 20.811 27.937 16.2 34.99 11.59 42.042 8.2 49.365 8.2 56.01c0 6.646 2.305 9.765 7.052 15.19 4.746 5.424 12.612 8.272 20.614 10.442 8.001 2.17 10.85 2.035 16.41 4.34 5.56 2.306 6.51 2.712 7.187 4.204.453.995.905 1.944 1.357 2.848l-.543.407c1.085 3.165 1.808 6.736 2.17 10.714.543 5.967 1.899 14.511 1.899 16.139 0 .095-.136.678-.272 1.085-.135.406-2.879 9.069-3.119 9.628-.056.132-.396 1.057-.666 1.603a5.11 5.11 0 0 1-.012.025c-.271.542-.205.542-.271.542-.18 0-.362-.045-.543-.135z"/>
        <path id="c" d="M20.765 189.904c-.796-1.99-1.393-4.428-1.79-7.313-.598-4.328-2.24-12.238-2.836-16.864-.597-4.627-.896-7.91-2.09-12.238-.341-1.238-.487-2.134-.626-2.824-.348-1.724-2.06 2.227-5.343-2.848-3.284-5.074-8.06-15.67-8.06-23.58 0-7.91-.596-12.387 4.627-26.863 5.224-14.477 14.626-24.476 19.85-31.341 5.223-6.866 18.058-20.894 25.52-28.058 7.462-7.164 27.908-21.939 40.892-27.908 6.496-2.987 16.972-6.679 26.864-8.507 9.881-1.826 19.18-1.79 22.983-1.194 7.612 1.194 18.954 3.731 24.327 7.91 5.373 4.179 14.626 12.685 16.715 17.61 2.09 4.925 10.447 15.67 8.059 35.819-2.388 20.147-23.431 45.668-31.192 52.384-7.76 6.716-14.625 11.491-24.625 18.357-9.999 6.865-22.386 12.834-31.49 15.371-9.104 2.538-15.82 6.12-21.64 6.12s-11.64-.448-17.014 0c-7.39.615-17.76 2.089-21.938 2.089-4.179 0-2.913 4.626-3.433 4.626-.895 0-.298 1.344-.597 4.03-.199 1.79-1.89 8.606-5.074 20.446l.15.299-2.389 5.97v1.044a5.287 5.287 0 0 0-.895 1.492 6.31 6.31 0 0 0-.448 1.791c-.597 0-1.045.2-1.343.597-.298-.298-.746-.895-2.09-.746-1.017.113-1.763.56-2.238 1.343-.498-.398-.945-.995-1.343-1.79-.398-.797-.796-1.195-1.194-1.195.041-.389.041-.687 0-.895l-.448-.746c.395-.997.693-1.743.896-2.239.346-.849.895-2.09 1.044-2.537.15-.448.448-1.194.597-1.79.15-.598.637-2.062.896-2.837.158-.475.297-.902.424-1.3.231-.725.422-1.35.62-1.983.747-2.388.896-2.686 1.045-3.432.23-1.331.574-2.448.746-3.284 1.045-5.074 2.388-8.656 2.388-11.491 0-1.89-.15-4.378-.448-7.463-1.293-.1-1.94-.547-1.94-1.343 0-.796.2-1.79.597-2.985-.696-.398-1.044-.995-1.044-1.79 0-1.194.597-.896 0-1.94-.597-1.045-.299-3.582 1.044-5.224.896-1.095 1.791-1.791 2.687-2.09l4.03 3.135h.596c3.681 3.084 8.457 4.477 14.327 4.178 8.806-.447 19.402-1.044 23.73-1.492 4.328-.448 21.342-3.731 25.67-5.074 2.607-.81 14.953-5.684 25.52-11.79 6.976-4.032 16.784-10.835 21.193-14.477.457-.378 3.134-.746 4.626-3.283 1.492-2.537 4.31-4.713 6.567-6.567 8.749-7.187 13.98-17.897 16.416-22.983 3.433-7.164 9.552-22.834 8.209-28.655-1.343-5.82-2.239-15.969-8.955-22.386-1.404-1.342-4.54-10.138-15.67-15.223-8.436-3.854-22.387-4.626-31.64-3.88C94.945 12.473 70.762 32.9 66.135 36.632 61.51 40.362 51.66 50.362 43.6 57.824c-4.2 3.89-7.91 10-10.745 13.283-5.74 6.646-10.596 14.327-13.88 20.148-3.283 5.82-8.059 15.52-9.402 24.326-.895 5.87.2 13.382 3.284 22.536 4.775 1.99 7.412 3.532 7.91 4.626.497 1.095.994 2.14 1.492 3.134l-.597.448c1.194 3.482 1.99 7.412 2.388 11.79.597 6.567 2.09 15.97 2.09 17.76 0 .105-.15.746-.3 1.194-.149.448-3.168 9.98-3.432 10.596-.062.145-.436 1.163-.733 1.764a5.63 5.63 0 0 1-.013.027c-.299.597-.225.597-.299.597-.199 0-.398-.05-.597-.15z"/>
        <path id="e" d="M45.478 101.752c-.554-1.383-.968-3.077-1.245-5.082-.415-3.008-1.556-8.506-1.97-11.721-.416-3.216-.623-5.497-1.453-8.505-.83-3.008 0-3.112-3.112-4.357-3.111-1.244-15.662-4.149-17.425-5.082C18.51 66.07 7.1 61.196 2.743 53.313c-4.355-7.882-2.592-16.18-1.036-20.122 1.555-3.941 4.875-11.513 13.587-18.774 8.713-7.26 25.931-12.239 34.851-12.861C59.065.934 61.036 0 67.052 0s14.314.83 18.463 1.556c4.149.726 15.662 3.423 23.13 8.713 7.468 5.29 11.824 8.92 14.936 12.446 3.112 3.527 6.12 7.78 7.572 11.202 1.452 3.423 3.008 8.61 3.526 14.418.519 5.808.104 10.268-1.348 15.04-1.452 4.77-5.29 12.965-11.41 17.736-6.12 4.771-12.135 7.572-18.462 9.335-6.327 1.763-17.84 1.245-21.886 1.245-4.045 0-7.987-.726-13.276-3.527-5.29-2.8-9.854-6.742-10.476-6.742-.623 0-.208.934-.415 2.8-.139 1.246-1.314 5.982-3.527 14.21l.104.208-1.66 4.15v.725c-.248.284-.455.63-.622 1.037-.167.408-.27.823-.311 1.245-.415 0-.726.139-.934.415-.207-.207-.518-.622-1.452-.519-.707.079-1.225.39-1.556.934-.345-.277-.657-.692-.933-1.245-.277-.553-.553-.83-.83-.83.029-.27.029-.477 0-.622l-.311-.518c.274-.693.482-1.212.622-1.556.241-.59.623-1.452.726-1.764.104-.31.311-.83.415-1.244.104-.415.443-1.432.623-1.971.11-.33.206-.627.294-.904.161-.504.294-.938.432-1.378.518-1.66.622-1.867.726-2.386.16-.925.399-1.7.518-2.281.726-3.527 1.66-6.016 1.66-7.987 0-1.314-.104-3.043-.311-5.186-.9-.07-1.349-.38-1.349-.934 0-.553.139-1.244.415-2.074-.484-.277-.726-.692-.726-1.245 0-.83.415-.622 0-1.348-.415-.726-.207-2.49.726-3.63.622-.761 1.245-1.245 1.867-1.453l2.8 2.179h.416c2.005 2.42 3.664 4.39 4.978 5.912 1.971 2.282 3.112 3.008 3.838 3.734s1.556 1.244 2.49 1.763c.933.519 3.526 2.697 6.119 3.63 2.593.934 5.601 1.971 9.542 2.179 3.942.207 9.336 0 10.684 0 1.348 0 9.75-.52 13.899-2.801 4.149-2.282 9.542-4.356 13.691-8.92 4.15-4.564 6.224-9.335 6.95-12.136.726-2.8 1.867-7.883 1.452-11.513-.415-3.63-2.697-14.936-6.742-18.67-4.045-3.734-8.09-10.269-12.032-12.758-3.942-2.49-17.84-10.683-27.902-11.098-3.368-.14-7.001-1.142-11.202-1.141-8.347 0-10.164.518-16.18 1.14-6.016.623-17.944 2.49-25.62 5.913-7.675 3.423-13.276 7.883-16.803 13.276-3.526 5.394-6.12 10.995-6.12 16.077 0 5.083 1.764 7.469 5.394 11.617 3.63 4.15 9.646 6.328 15.766 7.987 6.12 1.66 8.298 1.556 12.55 3.32 4.253 1.762 4.979 2.074 5.498 3.215.345.76.691 1.486 1.037 2.178l-.415.31c.83 2.421 1.383 5.153 1.66 8.195.414 4.564 1.452 11.098 1.452 12.343 0 .073-.104.519-.208.83-.104.311-2.202 6.936-2.385 7.364-.044.101-.304.808-.51 1.226a3.879 3.879 0 0 1-.009.019c-.207.415-.157.415-.207.415a.92.92 0 0 1-.415-.104z"/>
    </defs>
    <g fill="none" fill-rule="evenodd">
        <g transform="translate(0 7.5)">
            <mask id="b" fill="#fff">
                <use xlink:href="#a"/>
            </mask>
            <use fill="#160219" xlink:href="#a"/>
            <path fill="#FFDD95" d="M0 0h176.44v139.416H0z" mask="url(#b)"/>
        </g>
        <g transform="translate(146)">
            <mask id="d" fill="#fff">
                <use xlink:href="#c"/>
            </mask>
            <use fill="#160219" xlink:href="#c"/>
            <path fill="#7F055F" d="M0 0h190.284v197H0z" mask="url(#d)"/>
        </g>
        <g transform="translate(306.236 54)">
            <mask id="f" fill="#fff">
                <use xlink:href="#e"/>
            </mask>
            <use fill="#160219" xlink:href="#e"/>
            <path fill="#FFE500" d="M0 0h134.943v106.627H0z" mask="url(#f)"/>
        </g>
    </g>
</svg>
