<svg xmlns="http://www.w3.org/2000/svg" width="80" height="80" viewBox="0 0 80 80">
    <g fill="none" fill-rule="evenodd">
        <rect width="80" height="80" fill="#160219" rx="4"/>
        <path fill="#FFF" fill-rule="nonzero" d="M42.221 12.004c4.308.015 7.486.076 9.533.184 2.375.125 4.438.479 6.188 1.062a14.57 14.57 0 0 1 5.437 3.438 14.57 14.57 0 0 1 3.438 5.437c.583 1.75.958 3.833 1.125 6.25l.032 1.054c.062 2.378.093 5.902.093 10.571l-.008 3.167c-.021 3.797-.08 6.637-.18 8.52-.125 2.376-.48 4.438-1.062 6.188a14.57 14.57 0 0 1-3.438 5.438 14.57 14.57 0 0 1-5.437 3.437c-1.75.583-3.813.937-6.188 1.062l-.786.037c-2.226.093-5.493.143-9.802.15h-2.198c-4.848-.008-8.378-.07-10.589-.187-2.375-.125-4.437-.52-6.187-1.187a13.324 13.324 0 0 1-5.438-3.312 14.57 14.57 0 0 1-3.437-5.438c-.584-1.75-.938-3.812-1.063-6.187l-.025-.514c-.092-2.05-.145-5.056-.159-9.02v-4.309c.015-4.307.076-7.485.184-9.532.125-2.375.48-4.438 1.063-6.188a14.57 14.57 0 0 1 3.437-5.437 14.57 14.57 0 0 1 5.438-3.438c1.75-.583 3.812-.937 6.187-1.062l.786-.037c2.04-.085 4.956-.134 8.747-.147h4.31zM37.518 17c-2.708.004-4.896.037-6.562.099l-.64.026c-3.083.167-5.333.5-6.75 1-2.583 1-4.374 2.792-5.374 5.375-.455 1.212-.772 3.182-.95 5.91l-.05.84c-.074 1.63-.116 3.852-.124 6.667l-.001 5.632c.003 2.347.028 4.303.075 5.868l.05 1.333c.166 3.083.5 5.333 1 6.75 1.083 2.583 2.875 4.375 5.375 5.375 1.275.45 3.225.765 5.85.945l.9.055c1.63.074 3.851.115 6.666.123l5.084.002c2.733 0 4.933-.027 6.6-.08l1.15-.045c3.166-.167 5.416-.5 6.75-1C59.15 60.792 60.942 59 61.942 56.5c.45-1.275.765-3.225.945-5.85l.055-.9c.074-1.63.115-3.852.123-6.667L63.067 38c0-2.733-.027-4.933-.08-6.6l-.045-1.15c-.167-3.167-.5-5.417-1-6.75-1-2.583-2.792-4.375-5.375-5.375-1.334-.5-3.584-.833-6.75-1-1.63-.074-3.852-.115-6.667-.123zm2.549 8.625c2.583 0 4.979.646 7.187 1.938a14.417 14.417 0 0 1 5.25 5.25c1.292 2.208 1.938 4.604 1.938 7.187s-.646 4.98-1.938 7.188a14.417 14.417 0 0 1-5.25 5.25c-2.208 1.291-4.604 1.937-7.187 1.937-2.584 0-4.98-.646-7.188-1.937a14.417 14.417 0 0 1-5.25-5.25c-1.292-2.209-1.937-4.605-1.937-7.188 0-2.583.645-4.98 1.937-7.187a14.417 14.417 0 0 1 5.25-5.25c2.208-1.292 4.604-1.938 7.188-1.938zm0 23.75c2.583 0 4.791-.917 6.625-2.75 1.833-1.833 2.75-4.042 2.75-6.625s-.917-4.792-2.75-6.625c-1.834-1.833-4.042-2.75-6.625-2.75-2.584 0-4.792.917-6.625 2.75-1.834 1.833-2.75 4.042-2.75 6.625s.916 4.792 2.75 6.625c1.833 1.833 4.041 2.75 6.625 2.75zM58.442 25a3.895 3.895 0 0 1-1.063 2.375c-.625.667-1.396 1-2.312 1-.917 0-1.709-.333-2.375-1-.667-.667-1-1.458-1-2.375s.333-1.708 1-2.375c.666-.667 1.458-1 2.375-1 .916 0 1.708.333 2.375 1 .666.667 1 1.458 1 2.375z"/>
    </g>
</svg>
