<svg xmlns="http://www.w3.org/2000/svg" width="80" height="80" viewBox="0 0 80 80">
    <g fill="none" fill-rule="evenodd">
        <rect width="80" height="80" fill="#160219" rx="4"/>
        <path fill="#FFF" fill-rule="nonzero" d="M64 12c1.083 0 2.02.395 2.812 1.187.792.791 1.188 1.729 1.188 2.812v48c0 1.083-.396 2.02-1.188 2.813-.791.791-1.729 1.187-2.812 1.187H16c-1.083 0-2.02-.396-2.812-1.187-.792-.792-1.188-1.73-1.188-2.813V16c0-1.083.396-2.02 1.188-2.812.791-.792 1.729-1.188 2.812-1.188h48zM50.125 32.623c-1.917 0-3.625.459-5.125 1.375-1.25.75-2.167 1.709-2.75 2.875h-.125V33.25h-8V60h8.25V46.75c0-2.083.292-3.667.875-4.75.833-1.417 2.208-2.125 4.125-2.125 1.917 0 3.167.792 3.75 2.375l.076.194c.366 1.006.549 2.525.549 4.556v13H60V45.374c0-4.167-.583-7.208-1.75-9.125-1.583-2.416-4.292-3.625-8.125-3.625zM20.625 60H29V33.25h-8.375V60zm4.125-30.375c1.333 0 2.48-.479 3.438-1.437.958-.959 1.437-2.084 1.437-3.375 0-1.292-.48-2.417-1.437-3.375-.959-.959-2.105-1.438-3.438-1.438-1.333 0-2.458.48-3.375 1.438-.917.958-1.375 2.083-1.375 3.375 0 1.291.458 2.416 1.375 3.375.917.958 2.042 1.437 3.375 1.437z"/>
    </g>
</svg>
