<svg xmlns="http://www.w3.org/2000/svg" width="240" height="240" viewBox="0 0 240 240">
    <g fill="none" fill-rule="evenodd">
        <path d="M0 0h240v240H0z"/>
        <path fill="#FFF" fill-rule="nonzero" d="M67.805 128.628c1.364 0 2.564.273 3.6.82a5.807 5.807 0 0 1 2.405 2.333c.567 1.008.85 2.164.85 3.47 0 1.286-.298 2.419-.893 3.398-.595.979-1.43 1.737-2.506 2.275-1.075.537-2.313.806-3.715.806h-3.053c-.096 0-.144.048-.144.144v6.479c0 .134-.038.24-.115.317a.428.428 0 0 1-.317.115h-4.55a.428.428 0 0 1-.317-.115.428.428 0 0 1-.116-.317V129.06c0-.135.039-.24.116-.317a.428.428 0 0 1 .316-.115h8.44zm-.893 8.782c.71 0 1.282-.187 1.714-.561.432-.374.648-.869.648-1.483 0-.634-.216-1.142-.648-1.526-.432-.384-1.003-.576-1.714-.576h-2.419c-.096 0-.144.048-.144.144v3.858c0 .096.048.144.144.144h2.42zm17.627-3.8c.653 0 1.171.124 1.555.374.173.096.24.278.202.547l-.691 4.434c-.02.154-.072.25-.159.288a.462.462 0 0 1-.25.022l-.11-.022a4.305 4.305 0 0 0-.921-.115c-.288 0-.557.029-.807.087-.5.096-.926.302-1.282.619-.355.316-.532.744-.532 1.281v7.228c0 .134-.039.24-.116.317a.428.428 0 0 1-.316.115H76.56a.428.428 0 0 1-.317-.115.428.428 0 0 1-.115-.317v-14.11c0-.134.038-.24.115-.317a.428.428 0 0 1 .317-.115h4.55c.135 0 .24.038.317.115a.428.428 0 0 1 .116.317v.691c0 .058.019.096.057.115.039.02.067.01.087-.029.73-.94 1.68-1.41 2.851-1.41zm9.504-.03c1.306 0 2.506.221 3.6.663 1.095.441 1.96 1.046 2.593 1.814s.95 1.603.95 2.505v9.79c0 .135-.038.24-.115.318a.428.428 0 0 1-.317.115h-4.55a.428.428 0 0 1-.317-.115.428.428 0 0 1-.115-.317v-1.008c0-.077-.015-.12-.044-.13-.028-.01-.062.015-.1.072-.327.596-.778 1.032-1.354 1.31-.576.279-1.335.418-2.275.418-1.575 0-2.813-.36-3.716-1.08-.902-.72-1.354-1.77-1.354-3.153 0-1.459.514-2.582 1.541-3.369 1.028-.787 2.52-1.18 4.479-1.18h2.679c.096 0 .144-.049.144-.145v-.518c0-.403-.15-.73-.447-.979-.297-.25-.696-.374-1.195-.374a2.32 2.32 0 0 0-.922.173c-.269.115-.46.268-.576.46a.867.867 0 0 1-.216.274c-.067.048-.158.062-.273.043l-4.637-.576c-.27-.038-.404-.153-.404-.345.077-.864.423-1.651 1.037-2.362.615-.71 1.435-1.272 2.463-1.684 1.027-.413 2.174-.62 3.441-.62zm-.374 11.692c.614 0 1.118-.163 1.512-.49.394-.326.59-.768.59-1.324v-.375c0-.096-.047-.144-.143-.144h-1.44c-1.21 0-1.815.394-1.815 1.18 0 .346.11.625.331.836.221.211.543.317.965.317zm16.59 3.743c-1.632 0-3.053-.398-4.263-1.195s-2.093-1.905-2.65-3.326c-.384-.979-.576-2.073-.576-3.282 0-1.19.192-2.275.576-3.254a6.547 6.547 0 0 1 2.65-3.211c1.229-.778 2.65-1.166 4.263-1.166 1.632 0 3.077.408 4.334 1.223 1.258.816 2.108 1.839 2.55 3.067.134.346.22.71.258 1.094v.087c0 .192-.124.317-.374.374l-4.464.72h-.087c-.25 0-.384-.125-.403-.374l-.115-.403c-.096-.327-.302-.6-.62-.821a1.89 1.89 0 0 0-1.108-.331c-.768 0-1.315.345-1.642 1.036-.23.48-.345 1.143-.345 1.987 0 .787.105 1.45.316 1.987.327.768.884 1.152 1.67 1.152.846 0 1.422-.441 1.729-1.325l.029-.115c.057-.326.22-.46.49-.403l4.492.749c.25.057.375.192.375.403 0 .23-.067.547-.202.95-.499 1.402-1.368 2.481-2.606 3.24-1.239.758-2.664 1.137-4.277 1.137zm18.433-11.317c0 .135-.039.24-.116.317a.428.428 0 0 1-.316.115h-2.39c-.097 0-.145.048-.145.144v4.521c0 .96.346 1.44 1.037 1.44h1.066c.134 0 .24.038.316.115a.428.428 0 0 1 .116.317v3.686c0 .269-.144.422-.432.46-.75.058-1.47.087-2.16.087-1.748 0-3.034-.269-3.86-.806-.826-.538-1.248-1.555-1.267-3.053v-6.767c0-.096-.048-.144-.144-.144h-1.555a.428.428 0 0 1-.317-.115.428.428 0 0 1-.115-.317v-3.455c0-.134.038-.24.115-.317a.428.428 0 0 1 .317-.115h1.555c.096 0 .144-.048.144-.144v-3.455c0-.135.038-.24.115-.317a.428.428 0 0 1 .317-.115h4.32c.135 0 .24.038.317.115a.428.428 0 0 1 .115.317v3.455c0 .096.048.144.144.144h2.39c.135 0 .24.038.317.115a.428.428 0 0 1 .116.317v3.455zm1.9 11.087a.428.428 0 0 1-.316-.115.428.428 0 0 1-.115-.317v-14.11c0-.134.038-.24.115-.317a.428.428 0 0 1 .317-.115h4.55c.135 0 .24.038.317.115a.428.428 0 0 1 .115.317v14.11c0 .134-.038.24-.115.317a.428.428 0 0 1-.317.115h-4.55zm14.056.23c-1.632 0-3.053-.398-4.263-1.195s-2.093-1.905-2.65-3.326c-.384-.979-.576-2.073-.576-3.282 0-1.19.192-2.275.576-3.254a6.547 6.547 0 0 1 2.65-3.211c1.229-.778 2.65-1.166 4.263-1.166 1.632 0 3.077.408 4.334 1.223 1.258.816 2.108 1.839 2.55 3.067.134.346.22.71.259 1.094v.087c0 .192-.125.317-.375.374l-4.464.72h-.087c-.25 0-.384-.125-.403-.374l-.115-.403c-.096-.327-.302-.6-.62-.821a1.89 1.89 0 0 0-1.108-.331c-.768 0-1.315.345-1.642 1.036-.23.48-.345 1.143-.345 1.987 0 .787.105 1.45.316 1.987.327.768.884 1.152 1.67 1.152.846 0 1.422-.441 1.729-1.325l.029-.115c.057-.326.22-.46.49-.403l4.492.749c.25.057.375.192.375.403 0 .23-.067.547-.202.95-.499 1.402-1.368 2.481-2.606 3.24-1.239.758-2.664 1.137-4.277 1.137zm15.15-15.434c1.305 0 2.505.22 3.6.662 1.094.441 1.958 1.046 2.592 1.814.633.768.95 1.603.95 2.505v9.79c0 .135-.038.24-.115.318a.428.428 0 0 1-.317.115h-4.55a.428.428 0 0 1-.317-.115.428.428 0 0 1-.116-.317v-1.008c0-.077-.014-.12-.043-.13-.029-.01-.062.015-.1.072-.327.596-.778 1.032-1.354 1.31-.576.279-1.335.418-2.276.418-1.574 0-2.813-.36-3.715-1.08-.902-.72-1.354-1.77-1.354-3.153 0-1.459.514-2.582 1.541-3.369 1.027-.787 2.52-1.18 4.479-1.18h2.678c.096 0 .144-.049.144-.145v-.518c0-.403-.148-.73-.446-.979-.298-.25-.696-.374-1.195-.374a2.32 2.32 0 0 0-.922.173c-.269.115-.46.268-.576.46a.867.867 0 0 1-.216.274c-.067.048-.158.062-.274.043l-4.637-.576c-.268-.038-.403-.153-.403-.345.077-.864.423-1.651 1.037-2.362.614-.71 1.435-1.272 2.463-1.684 1.027-.413 2.174-.62 3.441-.62zm-.375 11.69c.614 0 1.118-.162 1.512-.489.394-.326.59-.768.59-1.324v-.375c0-.096-.048-.144-.144-.144h-1.44c-1.21 0-1.814.394-1.814 1.18 0 .346.11.625.331.836.22.211.542.317.965.317zm9.85 3.514a.428.428 0 0 1-.317-.115.428.428 0 0 1-.115-.317V129.06c0-.135.038-.24.115-.317a.428.428 0 0 1 .317-.115h4.55c.135 0 .24.038.317.115a.428.428 0 0 1 .116.317v19.293c0 .134-.039.24-.116.317a.428.428 0 0 1-.316.115h-4.551zM66.749 171.812c-1.574 0-2.962-.307-4.162-.922-1.2-.614-2.13-1.483-2.793-2.606-.663-1.123-.994-2.423-.994-3.901v-5.817c0-1.46.331-2.745.994-3.859.662-1.113 1.593-1.977 2.793-2.591 1.2-.615 2.588-.922 4.162-.922 1.575 0 2.962.288 4.162.864 1.2.576 2.131 1.387 2.794 2.433.662 1.046.993 2.26.993 3.643 0 .173-.144.278-.432.317l-4.55.288h-.087c-.23 0-.345-.106-.345-.317 0-.787-.23-1.416-.691-1.886-.461-.47-1.076-.706-1.844-.706s-1.382.235-1.843.706c-.46.47-.691 1.099-.691 1.886v6.19c0 .769.23 1.388.69 1.858.462.47 1.076.706 1.844.706s1.383-.235 1.844-.706c.46-.47.69-1.09.69-1.857 0-.115.04-.202.116-.26.077-.057.182-.076.317-.057l4.55.23c.288.02.432.116.432.288 0 1.383-.33 2.602-.993 3.658-.663 1.055-1.594 1.876-2.794 2.462-1.2.585-2.587.878-4.162.878zm10.11-.23a.428.428 0 0 1-.317-.116.428.428 0 0 1-.115-.316v-19.294c0-.134.038-.24.115-.316a.428.428 0 0 1 .317-.116h4.55c.135 0 .24.039.317.116a.428.428 0 0 1 .115.316v19.294c0 .134-.038.24-.115.316a.428.428 0 0 1-.317.116h-4.55zm13.968.23c-1.824 0-3.365-.49-4.622-1.469-1.258-.979-2.088-2.303-2.492-3.974-.192-.69-.288-1.459-.288-2.303 0-.94.116-1.795.346-2.563.46-1.593 1.31-2.846 2.549-3.758 1.238-.912 2.75-1.368 4.536-1.368 1.786 0 3.288.456 4.508 1.368 1.219.912 2.059 2.145 2.52 3.7.23.807.345 1.66.345 2.563 0 .73-.077 1.46-.23 2.189-.403 1.727-1.234 3.095-2.491 4.103-1.258 1.008-2.818 1.512-4.68 1.512zm0-4.636c.5 0 .903-.168 1.21-.504.307-.336.518-.782.634-1.34.076-.364.115-.796.115-1.295 0-.442-.048-.883-.144-1.325-.288-1.132-.893-1.699-1.815-1.699-.9 0-1.488.498-1.763 1.494l-.051.205c-.096.327-.144.768-.144 1.325 0 .5.038.931.115 1.296.288 1.228.902 1.843 1.843 1.843zm13.911-10.568c.135 0 .24.038.317.115a.428.428 0 0 1 .115.317v8.206c0 .576.15 1.042.447 1.397.297.355.686.533 1.166.533.423 0 .773-.13 1.052-.389.278-.26.456-.61.532-1.051a.401.401 0 0 0 .03-.173v-8.523c0-.135.038-.24.114-.317a.428.428 0 0 1 .317-.115h4.55c.135 0 .24.038.318.115a.428.428 0 0 1 .115.317v14.11c0 .134-.038.24-.115.316a.428.428 0 0 1-.317.116h-4.55a.428.428 0 0 1-.318-.116.428.428 0 0 1-.115-.316v-.95c0-.058-.019-.097-.057-.116-.03-.014-.058-.007-.087.022l-.029.036c-.787 1.113-2.016 1.67-3.686 1.67-1.46 0-2.621-.475-3.485-1.426-.864-.95-1.296-2.27-1.296-3.959v-9.387c0-.135.038-.24.115-.317a.428.428 0 0 1 .317-.115h4.55zm25.23-5.184c.135 0 .24.039.317.116a.428.428 0 0 1 .116.316v19.294c0 .134-.039.24-.116.316a.428.428 0 0 1-.316.116h-4.551a.428.428 0 0 1-.317-.116.428.428 0 0 1-.115-.316v-.864c0-.058-.02-.096-.058-.115-.029-.015-.057-.008-.086.021l-.029.036c-.71 1.056-1.824 1.584-3.34 1.584-1.287 0-2.444-.408-3.471-1.224-1.028-.816-1.753-1.924-2.175-3.326-.288-.96-.432-2.035-.432-3.225 0-1.382.211-2.61.634-3.686a6.494 6.494 0 0 1 2.16-2.865c.979-.74 2.15-1.109 3.514-1.109 1.401 0 2.438.442 3.11 1.325.038.038.077.053.115.043.039-.01.058-.043.058-.1v-5.789c0-.134.038-.24.115-.316a.428.428 0 0 1 .317-.116h4.55zm-6.94 9.59c-.692 0-1.2.316-1.527.95-.288.537-.432 1.257-.432 2.16 0 .863.144 1.564.432 2.101.346.634.854.95 1.526.95s1.181-.326 1.527-.978c.288-.557.432-1.248.432-2.074 0-.921-.154-1.66-.46-2.217-.347-.595-.846-.893-1.499-.893z"/>
        <path fill="#FFF" d="M131.659 129.038c-.234-.586-.41-1.302-.527-2.15-.175-1.273-.658-3.599-.833-4.96-.176-1.36-.264-2.325-.615-3.598-.1-.364-.143-.627-.184-.83-.102-.507-.606.655-1.571-.837s-2.37-4.608-2.37-6.933c0-2.326-.175-3.643 1.36-7.9 1.537-4.256 4.301-7.196 5.837-9.214 1.536-2.019 5.31-6.144 7.504-8.25s8.206-6.45 12.023-8.206c1.91-.878 4.99-1.964 7.9-2.501 2.904-.537 5.639-.527 6.757-.351 2.238.35 5.573 1.097 7.153 2.325 1.58 1.229 4.3 3.73 4.914 5.178.615 1.449 3.072 4.608 2.37 10.532s-6.89 13.428-9.171 15.403c-2.282 1.974-4.3 3.378-7.24 5.397-2.94 2.019-6.583 3.774-9.26 4.52-2.677.746-4.651 1.799-6.363 1.799-1.711 0-3.422-.132-5.002 0-2.173.181-5.222.614-6.45.614-1.23 0-.857 1.36-1.01 1.36-.263 0-.088.396-.176 1.186-.058.526-.556 2.53-1.492 6.011l.044.088-.702 1.755v.308c-.105.12-.193.266-.263.438-.07.173-.115.348-.132.527-.175 0-.307.059-.395.175-.088-.087-.22-.263-.614-.219-.3.033-.519.165-.658.395a1.549 1.549 0 0 1-.395-.527c-.117-.234-.234-.35-.351-.35a.929.929 0 0 0 0-.264l-.132-.22.263-.658c.102-.25.264-.614.307-.746.044-.131.132-.35.176-.526.044-.176.187-.606.263-.834.047-.14.088-.265.125-.382.068-.213.124-.397.182-.583.22-.702.264-.79.308-1.01.067-.39.168-.72.22-.965.306-1.492.701-2.545.701-3.379 0-.556-.044-1.287-.131-2.194-.38-.03-.57-.16-.57-.395 0-.234.058-.526.175-.878a.57.57 0 0 1-.308-.526c0-.351.176-.263 0-.57-.175-.308-.087-1.054.308-1.536.263-.322.526-.527.79-.615l1.184.922h.176c1.082.907 2.486 1.316 4.212 1.228 2.59-.131 5.705-.307 6.978-.438 1.272-.132 6.275-1.097 7.547-1.492.767-.238 4.397-1.671 7.504-3.467 2.051-1.186 4.935-3.186 6.231-4.257.135-.11.922-.219 1.36-.965.44-.746 1.268-1.386 1.932-1.93 2.572-2.114 4.11-5.263 4.827-6.759 1.009-2.106 2.808-6.714 2.413-8.425-.395-1.711-.658-4.695-2.633-6.582-.413-.395-1.335-2.981-4.607-4.476-2.48-1.133-6.583-1.36-9.303-1.141-8.775.708-15.886 6.714-17.246 7.81-1.36 1.098-4.257 4.038-6.626 6.232-1.235 1.144-2.326 2.94-3.16 3.906-1.687 1.954-3.115 4.212-4.08 5.924-.966 1.711-2.37 4.563-2.765 7.152-.264 1.726.058 3.935.965 6.627 1.404.585 2.18 1.038 2.326 1.36.146.322.292.629.439.921l-.176.132c.351 1.024.585 2.18.702 3.467.176 1.93.615 4.695.615 5.222 0 .03-.044.22-.088.35-.044.132-.932 2.935-1.01 3.116-.018.043-.128.342-.215.519a1.798 1.798 0 0 1-.004.008c-.088.175-.066.175-.088.175a.39.39 0 0 1-.175-.043z"/>
        <path fill="#FFF" d="M131.648 129.038c-.234-.586-.41-1.302-.526-2.15-.176-1.273-.658-3.599-.834-4.96-.175-1.36-.263-2.325-.614-3.598-.1-.364-.144-.627-.185-.83-.102-.507-5.388.26-7.056.26-.748 0-2.12.174-3.686 0-1.926-.214-7.248-1.597-7.635-1.887-.419-.314-3.578-1.349-6.275-3.73-1.83-1.615-3.255-3.974-4.213-6.67-.737-2.075-1.011-6.726.702-11.014 1.111-2.782 3.328-5.329 5.88-7.197 2.458-1.8 4.217-2.96 6.275-4.169 3.619-2.123 7.425-3.66 11.76-4.695 3.06-.73 11.454-1.843 15.754-1.448 1.953.18 7.11.834 9.566 1.448 3.354.838 6.451 2.413 8.865 3.905 5.839 3.61 5.596 11.89 5.529 12.419-.264 2.062-.264 2.457-1.975 7.46-.824 2.41-3.5 7.276-7.592 10.62-1.12.914-2.042 1.73-3.115 2.369-3.148 1.87-6.13 2.602-7.636 2.896-.85.167-2.076.572-3.115.746-1.557.26-2.906.263-3.642.263-1.23 0-.857 1.36-1.01 1.36-.263 0-.087.396-.175 1.186-.059.526-.556 2.53-1.492 6.011l.044.088-.702 1.755v.308c-.105.12-.193.266-.264.438-.07.173-.114.348-.131.527-.176 0-.308.059-.395.175-.088-.087-.22-.263-.615-.219-.299.033-.518.165-.658.395a1.549 1.549 0 0 1-.395-.527c-.117-.234-.234-.35-.35-.35a.929.929 0 0 0 0-.264l-.132-.22c.116-.292.203-.512.263-.658.102-.25.263-.614.307-.746.044-.131.132-.35.176-.526.043-.176.187-.606.263-.834l.124-.382c.069-.213.125-.397.183-.583.22-.702.263-.79.307-1.01.068-.39.169-.72.22-.965.307-1.492.702-2.545.702-3.379 0-.556-.044-1.287-.132-2.194-.38-.03-.57-.16-.57-.395 0-.234.058-.526.175-.878a.57.57 0 0 1-.307-.526c0-.351.175-.263 0-.57-.176-.308-.088-1.054.307-1.536.263-.322.527-.527.79-.615l1.185.922h.175c.644.76 1.829 1.097 3.555 1.009 2.589-.132 4.563 0 7.284-1.01 2.72-1.009 8.03-3.905 9.479-6.625.42-.79 2.98-4.162 4.563-7.9.655-1.543 1.536-3.73 1.536-4.65 0-2.522.163-6.26-1.536-8.426-1.488-1.898-3.253-3.14-5.266-4.169-2.607-1.332-5.391-2.174-6.055-2.282-2.984-.482-5.968-1.228-10.795-1.228-5.956 0-13.265 1.774-14.744 2.194-2.67.758-6.02 1.93-9.435 4.037-1.056.651-2.777 1.897-4.3 2.808-6.451 3.862-6.465 8.207-6.978 9.523-1.009 2.589.38 8.892 2.502 11.014.921.922 1.945 2.518 6.1 3.993 2.051.73 5.655 1.848 9.127 2.019 1.784.088 5.017-.249 9.697-1.01.615.352.995.688 1.141 1.01.147.322.293.629.44.921l-.176.132c.35 1.024.585 2.18.702 3.467.175 1.93.614 4.695.614 5.222 0 .03-.044.22-.088.35-.043.132-.931 2.935-1.009 3.116-.018.043-.128.342-.215.519a1.694 1.694 0 0 1-.004.008c-.088.175-.067.175-.088.175a.39.39 0 0 1-.176-.043z"/>
        <path fill="#FFF" d="M131.664 129.038c-.234-.586-.41-1.302-.527-2.15-.176-1.273-.658-3.599-.834-4.96-.175-1.36-.263-2.325-.614-3.598-.351-1.272 0-1.316-1.317-1.843-1.316-.526-6.626-1.755-7.372-2.15-.746-.395-5.573-2.457-7.416-5.792s-1.097-6.846-.439-8.513c.659-1.668 2.063-4.871 5.749-7.943 3.686-3.072 10.97-5.178 14.744-5.441 3.774-.264 4.608-.659 7.153-.659s6.056.352 7.811.659c1.755.307 6.626 1.448 9.786 3.686 3.16 2.238 5.002 3.774 6.319 5.266 1.316 1.492 2.589 3.29 3.203 4.739.614 1.448 1.273 3.642 1.492 6.1.22 2.457.044 4.344-.57 6.362-.615 2.019-2.238 5.486-4.828 7.504-2.589 2.019-5.134 3.203-7.81 3.95-2.677.745-7.548.526-9.26.526-1.71 0-3.378-.307-5.616-1.492-2.238-1.185-4.17-2.852-4.432-2.852-.264 0-.088.395-.176 1.185-.059.526-.556 2.53-1.492 6.011l.044.088-.702 1.755v.308c-.105.12-.193.266-.264.438-.07.173-.114.348-.131.527-.176 0-.307.059-.395.175-.088-.087-.22-.263-.614-.219-.3.033-.519.165-.659.395a1.549 1.549 0 0 1-.395-.527c-.117-.234-.234-.35-.35-.35a.929.929 0 0 0 0-.264l-.132-.22c.116-.292.203-.512.263-.658.102-.25.263-.614.307-.746.044-.131.132-.35.176-.526.044-.176.187-.606.263-.834.047-.14.087-.265.125-.382.068-.213.124-.397.182-.583.22-.702.263-.79.307-1.01.068-.39.17-.72.22-.965.307-1.492.702-2.545.702-3.379 0-.556-.044-1.287-.132-2.194-.38-.03-.57-.16-.57-.395 0-.234.058-.526.175-.878a.57.57 0 0 1-.307-.526c0-.351.176-.263 0-.57-.175-.308-.088-1.054.307-1.536.264-.322.527-.527.79-.615l1.185.922h.175c.849 1.024 1.55 1.857 2.107 2.501.834.965 1.316 1.273 1.623 1.58.308.307.659.526 1.054.746.395.22 1.492 1.14 2.589 1.536 1.097.395 2.37.833 4.037.921 1.667.088 3.95 0 4.52 0 .57 0 4.124-.22 5.88-1.185 1.755-.965 4.037-1.843 5.792-3.774 1.755-1.93 2.633-3.949 2.94-5.134.307-1.185.79-3.335.615-4.87-.176-1.536-1.141-6.32-2.853-7.9-1.711-1.58-3.423-4.344-5.09-5.397-1.668-1.053-7.548-4.52-11.804-4.695-1.425-.059-2.962-.483-4.74-.483-3.53 0-4.3.22-6.845.483s-7.592 1.053-10.839 2.501c-3.247 1.448-5.617 3.335-7.109 5.617s-2.589 4.651-2.589 6.802c0 2.15.746 3.16 2.282 4.914 1.536 1.756 4.081 2.677 6.67 3.38 2.59.701 3.51.658 5.31 1.404 1.799.746 2.106.877 2.326 1.36.146.322.292.629.438.921l-.175.132c.35 1.024.585 2.18.702 3.467.175 1.93.614 4.695.614 5.222 0 .03-.044.22-.087.35-.044.132-.932 2.935-1.01 3.116-.018.043-.128.342-.215.519a1.602 1.602 0 0 1-.004.008c-.088.175-.066.175-.088.175a.39.39 0 0 1-.175-.043z"/>
    </g>
</svg>
