<svg xmlns="http://www.w3.org/2000/svg" width="125" height="100" viewBox="0 0 125 100">
    <g fill="#FFF" fill-rule="evenodd">
        <path fill-rule="nonzero" d="M9.152 56.158c1.385 0 2.605.277 3.658.831a5.893 5.893 0 0 1 2.444 2.363c.576 1.022.864 2.193.864 3.516 0 1.303-.303 2.45-.907 3.443-.605.992-1.454 1.76-2.547 2.305-1.093.544-2.351.816-3.776.816H5.786c-.098 0-.147.05-.147.146v6.565a.433.433 0 0 1-.117.32.436.436 0 0 1-.322.117H.576a.436.436 0 0 1-.322-.116.433.433 0 0 1-.117-.321V56.595c0-.136.039-.243.117-.32a.436.436 0 0 1 .322-.117h8.576zm-.908 8.898c.722 0 1.303-.19 1.742-.569.439-.379.658-.88.658-1.502 0-.642-.22-1.157-.658-1.547-.44-.389-1.02-.583-1.742-.583H5.786c-.098 0-.147.049-.147.146v3.91c0 .097.05.145.147.145h2.458zm17.913-3.85c.664 0 1.19.126 1.581.378.176.098.244.282.205.555l-.703 4.493c-.02.155-.073.253-.16.291a.47.47 0 0 1-.256.022l-.11-.022a4.388 4.388 0 0 0-.937-.116c-.293 0-.566.029-.82.087a2.678 2.678 0 0 0-1.302.628c-.361.32-.542.753-.542 1.298v7.323a.433.433 0 0 1-.117.32.436.436 0 0 1-.322.117H18.05a.436.436 0 0 1-.322-.116.433.433 0 0 1-.117-.321V61.847c0-.136.039-.243.117-.321a.436.436 0 0 1 .322-.117h4.624c.137 0 .244.04.322.117a.433.433 0 0 1 .117.32v.701c0 .059.02.097.059.117.039.02.068.01.088-.03.741-.952 1.707-1.429 2.897-1.429zm9.66-.03c1.326 0 2.546.224 3.658.67 1.113.448 1.99 1.061 2.635 1.839.643.778.965 1.624.965 2.538v9.92a.433.433 0 0 1-.117.32.436.436 0 0 1-.322.117h-4.624a.436.436 0 0 1-.322-.116.433.433 0 0 1-.117-.321v-1.021c0-.078-.015-.122-.044-.132-.03-.01-.064.015-.103.073a3.068 3.068 0 0 1-1.375 1.328c-.586.282-1.356.423-2.313.423-1.6 0-2.858-.365-3.775-1.094-.918-.73-1.376-1.795-1.376-3.195 0-1.478.522-2.616 1.566-3.413 1.044-.798 2.56-1.197 4.551-1.197h2.722c.098 0 .147-.048.147-.146v-.525c0-.408-.152-.739-.454-.992-.302-.252-.707-.379-1.215-.379-.35 0-.663.058-.936.175-.273.117-.469.272-.586.467a.88.88 0 0 1-.22.277c-.068.049-.16.063-.277.044l-4.713-.584c-.273-.039-.41-.155-.41-.35.079-.875.43-1.672 1.054-2.392.625-.72 1.459-1.289 2.503-1.707 1.044-.418 2.21-.627 3.498-.627zm-.381 11.845c.624 0 1.137-.165 1.537-.496.4-.33.6-.778.6-1.342v-.38c0-.097-.05-.145-.147-.145h-1.463c-1.23 0-1.844.399-1.844 1.196 0 .35.112.632.336.846.225.214.552.321.981.321zm16.86 3.793c-1.66 0-3.103-.404-4.332-1.211-1.23-.807-2.127-1.93-2.693-3.37-.39-.992-.586-2.1-.586-3.326 0-1.206.195-2.305.586-3.296a6.638 6.638 0 0 1 2.693-3.253c1.248-.788 2.692-1.182 4.331-1.182 1.66 0 3.127.413 4.406 1.24 1.278.826 2.141 1.862 2.59 3.107.137.35.224.72.263 1.109v.087c0 .195-.126.321-.38.38l-4.537.729h-.088c-.253 0-.39-.127-.41-.38l-.117-.408c-.097-.33-.307-.608-.629-.831a1.926 1.926 0 0 0-1.127-.336c-.78 0-1.336.35-1.668 1.05-.234.487-.351 1.158-.351 2.013 0 .798.107 1.469.322 2.014.331.778.897 1.167 1.697 1.167.859 0 1.444-.448 1.756-1.342l.03-.117c.058-.33.224-.467.497-.409l4.566.759c.254.058.38.194.38.408 0 .234-.067.555-.204.963-.507 1.42-1.39 2.514-2.649 3.282-1.259.769-2.707 1.153-4.347 1.153zm18.732-11.466a.433.433 0 0 1-.117.32.436.436 0 0 1-.322.118h-2.43c-.097 0-.146.048-.146.145v4.581c0 .972.352 1.459 1.054 1.459h1.083c.137 0 .244.039.322.116a.433.433 0 0 1 .117.321v3.735c0 .272-.146.428-.439.467-.761.058-1.493.087-2.195.087-1.776 0-3.083-.272-3.922-.817-.84-.544-1.269-1.575-1.288-3.092V65.93c0-.097-.049-.145-.147-.145h-1.58a.436.436 0 0 1-.322-.117.433.433 0 0 1-.117-.321v-3.501c0-.136.039-.243.117-.321a.436.436 0 0 1 .322-.117h1.58c.098 0 .147-.048.147-.146v-3.5c0-.137.039-.244.117-.321a.436.436 0 0 1 .322-.117h4.39c.137 0 .244.039.322.117a.433.433 0 0 1 .117.32v3.501c0 .098.05.146.147.146h2.43c.136 0 .243.04.321.117a.433.433 0 0 1 .117.32v3.502zM72.96 76.58a.436.436 0 0 1-.322-.116.433.433 0 0 1-.117-.321V61.847c0-.136.039-.243.117-.321a.436.436 0 0 1 .322-.117h4.625c.136 0 .243.04.322.117a.433.433 0 0 1 .117.32v14.297a.433.433 0 0 1-.117.32.436.436 0 0 1-.322.117H72.96zm14.284.234c-1.659 0-3.103-.404-4.332-1.211-1.23-.807-2.127-1.93-2.693-3.37-.39-.992-.586-2.1-.586-3.326 0-1.206.196-2.305.586-3.296a6.638 6.638 0 0 1 2.693-3.253c1.249-.788 2.693-1.182 4.332-1.182 1.658 0 3.127.413 4.405 1.24 1.278.826 2.141 1.862 2.59 3.107.137.35.225.72.264 1.109v.087c0 .195-.127.321-.381.38l-4.537.729h-.088c-.253 0-.39-.127-.41-.38l-.116-.408c-.098-.33-.308-.608-.63-.831a1.926 1.926 0 0 0-1.127-.336c-.78 0-1.336.35-1.668 1.05-.234.487-.351 1.158-.351 2.013 0 .798.107 1.469.322 2.014.331.778.897 1.167 1.697 1.167.859 0 1.444-.448 1.757-1.342l.029-.117c.058-.33.224-.467.497-.409l4.567.759c.253.058.38.194.38.408 0 .234-.068.555-.205.963-.507 1.42-1.39 2.514-2.649 3.282-1.258.769-2.707 1.153-4.346 1.153zm15.396-15.638c1.326 0 2.546.224 3.658.67 1.113.448 1.99 1.061 2.635 1.839.644.778.965 1.624.965 2.538v9.92a.433.433 0 0 1-.117.32.436.436 0 0 1-.322.117h-4.624a.436.436 0 0 1-.322-.116.433.433 0 0 1-.117-.321v-1.021c0-.078-.015-.122-.044-.132-.03-.01-.064.015-.103.073a3.068 3.068 0 0 1-1.375 1.328c-.586.282-1.356.423-2.313.423-1.6 0-2.858-.365-3.775-1.094-.918-.73-1.376-1.795-1.376-3.195 0-1.478.522-2.616 1.566-3.413 1.044-.798 2.56-1.197 4.551-1.197h2.722c.098 0 .147-.048.147-.146v-.525c0-.408-.151-.739-.454-.992-.302-.252-.707-.379-1.215-.379-.35 0-.663.058-.936.175-.273.117-.469.272-.586.467a.88.88 0 0 1-.22.277c-.067.049-.16.063-.277.044l-4.713-.584c-.273-.039-.41-.155-.41-.35.079-.875.43-1.672 1.054-2.392.625-.72 1.459-1.289 2.503-1.707 1.044-.418 2.21-.627 3.498-.627zm-.38 11.845c.623 0 1.136-.165 1.536-.496.4-.33.6-.778.6-1.342v-.38c0-.097-.049-.145-.147-.145h-1.463c-1.23 0-1.844.399-1.844 1.196 0 .35.112.632.337.846.224.214.55.321.98.321zm10.01 3.56a.436.436 0 0 1-.323-.117.433.433 0 0 1-.117-.321V56.595c0-.136.04-.243.117-.32a.436.436 0 0 1 .322-.117h4.625c.137 0 .244.039.322.117a.433.433 0 0 1 .117.32v19.548a.433.433 0 0 1-.117.32.436.436 0 0 1-.322.117h-4.625zM8.077 99.91c-1.6 0-3.01-.311-4.229-.934-1.22-.622-2.166-1.502-2.84-2.64C.338 95.199 0 93.88 0 92.384V86.49c0-1.478.337-2.781 1.01-3.91.673-1.127 1.62-2.003 2.839-2.625 1.22-.622 2.63-.934 4.23-.934 1.6 0 3.01.292 4.229.876 1.22.583 2.166 1.405 2.84 2.465.672 1.06 1.009 2.29 1.009 3.69 0 .176-.146.283-.44.321l-4.624.292h-.088c-.234 0-.35-.107-.35-.32 0-.798-.235-1.435-.703-1.912-.469-.476-1.093-.714-1.874-.714-.78 0-1.404.238-1.873.714-.468.477-.702 1.114-.702 1.911v6.273c0 .778.234 1.405.702 1.882.469.476 1.093.715 1.873.715.781 0 1.405-.239 1.874-.715.468-.477.702-1.104.702-1.882 0-.117.04-.204.117-.263.078-.058.186-.077.322-.058l4.625.233c.293.02.439.117.439.292 0 1.4-.337 2.636-1.01 3.705-.673 1.07-1.62 1.902-2.839 2.495-1.22.593-2.63.89-4.23.89zm10.274-.234a.436.436 0 0 1-.322-.116.433.433 0 0 1-.117-.321V79.692c0-.136.04-.243.117-.32a.436.436 0 0 1 .322-.117h4.625c.136 0 .244.039.322.116a.433.433 0 0 1 .117.321V99.24a.433.433 0 0 1-.117.32.436.436 0 0 1-.322.117h-4.625zm14.196.234c-1.854 0-3.42-.496-4.698-1.488-1.278-.992-2.122-2.334-2.532-4.026-.195-.7-.292-1.479-.292-2.334 0-.953.117-1.819.35-2.597.47-1.614 1.333-2.883 2.591-3.807 1.259-.924 2.796-1.386 4.61-1.386 1.815 0 3.342.462 4.581 1.386 1.24.924 2.093 2.173 2.561 3.749a9.38 9.38 0 0 1 .351 2.596c0 .74-.078 1.478-.234 2.218-.41 1.75-1.253 3.136-2.532 4.157-1.278 1.021-2.863 1.532-4.756 1.532zm0-4.697c.507 0 .917-.17 1.23-.511.312-.34.526-.793.643-1.357.078-.37.117-.807.117-1.313 0-.447-.048-.894-.146-1.342-.293-1.147-.907-1.72-1.844-1.72-.915 0-1.512.503-1.792 1.512l-.052.208c-.098.331-.146.778-.146 1.342 0 .506.039.944.117 1.313.292 1.245.917 1.868 1.873 1.868zm14.137-10.708c.137 0 .244.04.322.117a.433.433 0 0 1 .117.32v8.316c0 .583.152 1.055.454 1.415.303.36.698.54 1.186.54.429 0 .785-.132 1.068-.394.283-.263.463-.618.541-1.065a.405.405 0 0 0 .03-.175v-8.636c0-.136.039-.243.117-.321a.436.436 0 0 1 .322-.117h4.624c.137 0 .244.04.322.117a.433.433 0 0 1 .117.32V99.24a.433.433 0 0 1-.117.32.436.436 0 0 1-.322.117h-4.624a.436.436 0 0 1-.322-.116.433.433 0 0 1-.117-.321v-.963c0-.058-.02-.097-.059-.117-.03-.014-.058-.007-.088.022l-.029.037c-.8 1.128-2.049 1.692-3.746 1.692-1.484 0-2.664-.482-3.542-1.444-.878-.963-1.317-2.3-1.317-4.012v-9.511c0-.136.039-.243.117-.321a.436.436 0 0 1 .322-.117h4.624zm25.64-5.251c.137 0 .245.039.323.116a.433.433 0 0 1 .117.321V99.24a.433.433 0 0 1-.117.32.436.436 0 0 1-.322.117H67.7a.436.436 0 0 1-.322-.116.433.433 0 0 1-.117-.321v-.876c0-.058-.02-.097-.058-.116-.03-.015-.059-.008-.088.022l-.03.036c-.722 1.07-1.853 1.605-3.395 1.605-1.307 0-2.483-.414-3.527-1.24-1.044-.827-1.78-1.95-2.21-3.37-.292-.972-.439-2.062-.439-3.268 0-1.4.215-2.645.644-3.734a6.581 6.581 0 0 1 2.195-2.903c.996-.749 2.186-1.123 3.571-1.123 1.425 0 2.479.447 3.161 1.342.04.039.079.053.118.044.039-.01.058-.044.058-.102v-5.865c0-.136.04-.243.117-.32a.436.436 0 0 1 .322-.117h4.625zm-7.053 9.715c-.703 0-1.22.321-1.552.963-.292.544-.439 1.274-.439 2.188 0 .875.147 1.585.44 2.13.35.642.868.963 1.55.963.684 0 1.2-.331 1.552-.992.293-.564.44-1.265.44-2.101 0-.934-.157-1.682-.47-2.247-.35-.602-.858-.904-1.521-.904z"/>
        <path d="M74.044 56.573c-.238-.593-.417-1.319-.536-2.179-.178-1.289-.668-3.645-.847-5.023-.178-1.379-.267-2.357-.624-3.646-.102-.369-.146-.636-.188-.841-.103-.514-.615.663-1.596-.849-.981-1.511-2.408-4.668-2.408-7.024 0-2.357-.179-3.69 1.382-8.003 1.561-4.313 4.37-7.291 5.931-9.337 1.561-2.045 5.397-6.224 7.626-8.358 2.23-2.134 8.34-6.536 12.22-8.314 1.94-.89 5.07-1.99 8.027-2.534 2.952-.544 5.73-.534 6.867-.356 2.275.356 5.664 1.112 7.27 2.356 1.605 1.245 4.37 3.78 4.994 5.247.624 1.467 3.122 4.668 2.408 10.67-.713 6.002-7.001 13.605-9.32 15.605-2.32 2.001-4.37 3.424-7.359 5.469-2.987 2.045-6.689 3.824-9.41 4.58-2.72.755-4.726 1.822-6.465 1.822-1.74 0-3.479-.133-5.084 0-2.209.184-5.307.623-6.556.623-1.249 0-.87 1.378-1.026 1.378-.267 0-.089.4-.178 1.2-.06.534-.565 2.564-1.516 6.091l.044.09-.713 1.778v.31c-.107.123-.196.27-.268.445a1.875 1.875 0 0 0-.133.534c-.179 0-.313.06-.402.178-.089-.09-.223-.267-.624-.223-.304.034-.527.168-.67.4a1.57 1.57 0 0 1-.4-.533c-.12-.237-.238-.356-.357-.356a.938.938 0 0 0 0-.266l-.134-.223c.118-.297.207-.519.268-.667.103-.252.267-.622.312-.755.044-.134.134-.356.178-.534.045-.178.19-.614.268-.845.047-.141.089-.269.126-.387.07-.216.127-.402.186-.59.223-.712.267-.801.312-1.023.069-.397.172-.73.223-.978.312-1.512.714-2.58.714-3.424 0-.563-.045-1.304-.134-2.223-.387-.03-.58-.163-.58-.4 0-.237.06-.533.178-.89a.577.577 0 0 1-.312-.533c0-.355.179-.266 0-.578-.178-.31-.089-1.067.312-1.556.268-.326.536-.533.803-.622l1.204.933h.179c1.1.92 2.527 1.334 4.28 1.245 2.632-.133 5.798-.31 7.091-.444 1.294-.134 6.378-1.112 7.67-1.512.78-.24 4.47-1.693 7.627-3.512 2.084-1.201 5.015-3.228 6.332-4.313.137-.113.937-.222 1.383-.978.446-.756 1.288-1.404 1.962-1.956 2.614-2.141 4.177-5.332 4.905-6.847 1.026-2.134 2.854-6.802 2.453-8.536-.401-1.734-.669-4.757-2.676-6.67-.42-.399-1.357-3.02-4.682-4.534-2.52-1.148-6.69-1.378-9.454-1.156-8.918.717-16.144 6.802-17.526 7.914-1.383 1.111-4.326 4.09-6.734 6.313-1.256 1.159-2.364 2.979-3.211 3.957-1.715 1.98-3.166 4.268-4.148 6.002-.98 1.734-2.408 4.624-2.809 7.247-.268 1.749.06 3.987.981 6.713 1.427.593 2.215 1.053 2.364 1.379.148.326.297.637.446.933l-.179.134c.357 1.037.595 2.208.714 3.512.178 1.956.624 4.757.624 5.29 0 .032-.045.223-.09.356-.044.134-.946 2.974-1.025 3.157-.018.043-.13.347-.219.526a1.68 1.68 0 0 1-.004.008c-.089.177-.067.177-.089.177a.397.397 0 0 1-.178-.044z"/>
        <path d="M74.033 56.573c-.238-.593-.416-1.319-.535-2.179-.179-1.289-.67-3.645-.848-5.023-.178-1.379-.267-2.357-.624-3.646-.102-.369-.146-.636-.187-.841-.104-.514-5.476.263-7.171.263-.76 0-2.155.176-3.746 0-1.958-.217-7.366-1.618-7.76-1.912-.425-.318-3.635-1.367-6.377-3.779-1.86-1.637-3.308-4.026-4.281-6.758-.75-2.102-1.027-6.815.714-11.16 1.129-2.817 3.382-5.398 5.975-7.29 2.498-1.824 4.285-3 6.377-4.224 3.678-2.152 7.546-3.71 11.952-4.758 3.108-.74 11.64-1.867 16.01-1.467 1.984.182 7.224.845 9.722 1.467 3.408.85 6.555 2.446 9.008 3.957 5.934 3.658 5.687 12.047 5.619 12.582-.268 2.09-.268 2.49-2.007 7.559-.838 2.44-3.556 7.372-7.715 10.759-1.138.927-2.075 1.754-3.166 2.4-3.199 1.896-6.23 2.637-7.76 2.935-.865.169-2.11.58-3.166.756-1.582.264-2.953.267-3.702.267-1.248 0-.87 1.378-1.025 1.378-.268 0-.09.4-.179 1.2-.06.534-.564 2.564-1.516 6.091l.045.09-.714 1.778v.31c-.106.123-.196.27-.267.445a1.875 1.875 0 0 0-.134.534c-.179 0-.312.06-.401.178-.09-.09-.223-.267-.625-.223-.304.034-.527.168-.669.4a1.57 1.57 0 0 1-.401-.533c-.119-.237-.238-.356-.357-.356a.938.938 0 0 0 0-.266l-.134-.223c.118-.297.207-.519.268-.667.103-.252.267-.622.312-.755.045-.134.134-.356.178-.534.045-.178.19-.614.268-.845l.127-.387c.069-.216.126-.402.185-.59.223-.712.268-.801.312-1.023.069-.397.172-.73.223-.978.313-1.512.714-2.58.714-3.424 0-.563-.045-1.304-.134-2.223-.386-.03-.58-.163-.58-.4 0-.237.06-.533.179-.89a.577.577 0 0 1-.312-.533c0-.355.178-.266 0-.578-.179-.31-.09-1.067.312-1.556.267-.326.535-.533.802-.622l1.205.933h.178c.654.771 1.858 1.112 3.612 1.023 2.631-.133 4.638 0 7.403-1.023 2.765-1.022 8.16-3.956 9.633-6.713.427-.8 3.027-4.216 4.637-8.003.665-1.564 1.561-3.779 1.561-4.712 0-2.555.166-6.342-1.56-8.537-1.513-1.923-3.307-3.182-5.352-4.223-2.65-1.35-5.48-2.204-6.154-2.312-3.033-.49-6.065-1.245-10.97-1.245-6.054 0-13.48 1.797-14.985 2.223-2.713.768-6.117 1.956-9.588 4.09-1.072.66-2.822 1.922-4.37 2.846-6.556 3.912-6.57 8.314-7.09 9.647-1.026 2.623.384 9.01 2.541 11.16.937.933 1.977 2.55 6.199 4.046 2.086.738 5.748 1.872 9.276 2.045 1.813.089 5.099-.252 9.855-1.023.625.356 1.011.697 1.16 1.023.149.326.297.637.446.933l-.179.134c.357 1.037.595 2.208.714 3.512.178 1.956.624 4.757.624 5.29 0 .032-.044.223-.089.356-.044.134-.947 2.974-1.026 3.157-.018.043-.13.347-.218.526a1.671 1.671 0 0 1-.005.008c-.089.177-.067.177-.089.177a.397.397 0 0 1-.178-.044z"/>
        <path d="M74.048 56.573c-.238-.593-.416-1.319-.535-2.179-.178-1.289-.669-3.645-.847-5.023-.179-1.379-.268-2.357-.624-3.646-.357-1.29 0-1.334-1.338-1.868-1.338-.533-6.734-1.778-7.492-2.178-.758-.4-5.664-2.49-7.537-5.869-1.873-3.379-1.115-6.935-.446-8.625.669-1.69 2.096-4.935 5.842-8.047 3.746-3.112 11.149-5.246 14.984-5.513 3.835-.267 4.683-.667 7.27-.667 2.586 0 6.153.356 7.937.667 1.784.311 6.734 1.467 9.945 3.734 3.21 2.268 5.084 3.824 6.422 5.336 1.338 1.511 2.63 3.334 3.255 4.801.624 1.467 1.293 3.69 1.516 6.18.223 2.49.045 4.402-.58 6.447-.624 2.045-2.274 5.557-4.905 7.602-2.631 2.046-5.218 3.246-7.938 4.002-2.72.756-7.67.533-9.41.533-1.739 0-3.433-.31-5.708-1.511-2.274-1.2-4.236-2.89-4.504-2.89-.267 0-.089.4-.178 1.2-.06.534-.565 2.564-1.516 6.091l.044.09-.713 1.778v.31c-.107.123-.196.27-.268.445a1.875 1.875 0 0 0-.134.534c-.178 0-.312.06-.401.178-.09-.09-.223-.267-.624-.223-.304.034-.527.168-.67.4a1.57 1.57 0 0 1-.4-.533c-.12-.237-.239-.356-.357-.356a.938.938 0 0 0 0-.266l-.134-.223.267-.667c.104-.252.268-.622.312-.755.045-.134.134-.356.179-.534.044-.178.19-.614.267-.845.048-.141.09-.269.127-.387.07-.216.126-.402.186-.59.223-.712.267-.801.312-1.023.068-.397.171-.73.223-.978.312-1.512.713-2.58.713-3.424 0-.563-.044-1.304-.134-2.223-.386-.03-.58-.163-.58-.4 0-.237.06-.533.18-.89a.577.577 0 0 1-.313-.533c0-.355.178-.266 0-.578-.178-.31-.09-1.067.312-1.556.268-.326.535-.533.803-.622l1.204.933h.178a168.42 168.42 0 0 0 2.14 2.535c.848.978 1.339 1.289 1.65 1.6.313.311.67.534 1.071.756.402.222 1.516 1.156 2.631 1.556 1.115.4 2.408.845 4.103.934 1.695.089 4.014 0 4.593 0 .58 0 4.192-.222 5.976-1.2 1.784-.979 4.103-1.868 5.887-3.824 1.784-1.956 2.676-4.002 2.988-5.202.312-1.2.802-3.379.624-4.935-.178-1.556-1.16-6.402-2.899-8.003-1.739-1.6-3.478-4.401-5.173-5.468-1.694-1.067-7.67-4.58-11.996-4.758-1.448-.06-3.01-.489-4.816-.489-3.589 0-4.37.223-6.957.49-2.587.266-7.715 1.067-11.015 2.534-3.3 1.467-5.708 3.379-7.225 5.69-1.516 2.312-2.63 4.713-2.63 6.892 0 2.178.757 3.2 2.318 4.98 1.561 1.778 4.148 2.711 6.779 3.423 2.63.711 3.567.667 5.396 1.422 1.828.756 2.14.89 2.363 1.379.149.326.298.637.446.933l-.178.134c.357 1.037.595 2.208.713 3.512.179 1.956.625 4.757.625 5.29 0 .032-.045.223-.09.356-.044.134-.946 2.974-1.025 3.157-.019.043-.13.347-.22.526a1.68 1.68 0 0 1-.003.008c-.09.177-.067.177-.09.177a.397.397 0 0 1-.178-.044z"/>
    </g>
</svg>
